# xmcd
# Track frame offsets:
# 183
# 13813
# 26590
# 45995
# 54915
# 63553
# 80830
# 96548
# 112418
# 127083
# 138388
# 148833
# 157793
# 168388
# 188080
# 201203
# 210575
# 225040
# 237330
# 250490
#
# Disc length: 3459 seconds
# Revision: 2
# Processed by: cddbd v1.5.2PL0 Copyright (c) Steve Scherf et al.
# Submitted via: VisiTrax 2.11.3.279 - For more info visit www.synapsa.com
#
DISCID=1f0d8114
DTITLE=Trini Lopez - If I Had A Hammer
DYEAR=1900
DGENRE=Easy Listening
TTITLE0=If I Had A Hammer
TTITLE1=Lemon Tree
TTITLE2=La Bamba
TTITLE3=Amor
TTITLE4=Gonna Get Along Without You
TTITLE5=This Land Is Your Land
TTITLE6=America
TTITLE7=Granada
TTITLE8=Kansas City
TTITLE9=Quando Calienta El Sol
TTITLE10=Bye Bye Blondie
TTITLE11=Adalita
TTITLE12=Shame And Scandal
TTITLE13=Corazon
TTITLE14=Angelito
TTITLE15=Cielito Lindo
TTITLE16=Guantanamera
TTITLE17=Besame Mucho
TTITLE18=El Condor Pasa
TTITLE19=Quizas, Quizas, Quizas
EXTD=Import, UK.
EXTT0=
EXTT1=
EXTT2=
EXTT3=
EXTT4=
EXTT5=
EXTT6=
EXTT7=
EXTT8=
EXTT9=
EXTT10=
EXTT11=
EXTT12=
EXTT13=
EXTT14=
EXTT15=
EXTT16=
EXTT17=
EXTT18=
EXTT19=
PLAYORDER=
